# xmcd CD database file
#
# Track frame offsets:
#	182
#	11762
#	26290
#	41297
#	55712
#	67377
#	80072
#	94357
#	108000
#	122000
#	132377
#	147015
#	162385
#	163722
#	168412
#	185115
#	201767
#	228147
#	230030
#	249787
#	263885
#	279372
#	299162
#	320847
#	337842
#
# Disc length: 4765 seconds
#
# Revision: 0
# Processed by: cddbd v1.5.2PL0 Copyright (c) Steve Scherf et al.
# Submitted via: CDex 1.51
#
DISCID=6c129b19
DTITLE=Miles Davis - The Complete Birth of the Cool [Blue Note]
DYEAR=1998
DGENRE=Jazz
TTITLE0=Move
TTITLE1=Jeru
TTITLE2=Moon Dreams
TTITLE3=Venus de Milo
TTITLE4=Budo
TTITLE5=Deception
TTITLE6=Godchild
TTITLE7=Boplicity
TTITLE8=Rocker
TTITLE9=Israel
TTITLE10=Rouge
TTITLE11=Darn That Dream
TTITLE12=Birth of the Cool theme [live]
TTITLE13=Symphony Sid Announce the Band [live]
TTITLE14=Move [live]
TTITLE15=Why Do I Love You? [live]
TTITLE16=Godchild [live]
TTITLE17=Symphony Sid Introduction [live]
TTITLE18=S'il Vous Plait [live]
TTITLE19=Moon Dreams [live]
TTITLE20=Budo (Hallucination) [live]
TTITLE21=Darn That Dream [live]
TTITLE22=Move [live]
TTITLE23=Moon Dreams [live]
TTITLE24=Budo (Hallucination) [live]
EXTD=YEAR: 1998
EXTT0=
EXTT1=
EXTT2=
EXTT3=
EXTT4=
EXTT5=
EXTT6=
EXTT7=
EXTT8=
EXTT9=
EXTT10=
EXTT11=
EXTT12=
EXTT13=
EXTT14=
EXTT15=
EXTT16=
EXTT17=
EXTT18=
EXTT19=
EXTT20=
EXTT21=
EXTT22=
EXTT23=
EXTT24=
PLAYORDER=
